<?xml version="1.0" encoding="UTF-8" standalone="no"?>
<svg
   xmlns:dc="http://purl.org/dc/elements/1.1/"
   xmlns:cc="http://creativecommons.org/ns#"
   xmlns:rdf="http://www.w3.org/1999/02/22-rdf-syntax-ns#"
   xmlns:svg="http://www.w3.org/2000/svg"
   xmlns="http://www.w3.org/2000/svg"
   xmlns:xlink="http://www.w3.org/1999/xlink"
   xmlns:sodipodi="http://sodipodi.sourceforge.net/DTD/sodipodi-0.dtd"
   xmlns:inkscape="http://www.inkscape.org/namespaces/inkscape"
   version="1.1"
   id="svg2"
   viewBox="0 0 354.33071 354.3307"
   height="100mm"
   width="100mm"
   inkscape:version="0.91 r13725"
   sodipodi:docname="icon.svg"
   inkscape:export-filename="/home/olojkine/Developpement/dezoomify/favicon.png"
   inkscape:export-xdpi="172"
   inkscape:export-ydpi="172">
  <sodipodi:namedview
     pagecolor="#ffffff"
     bordercolor="#666666"
     borderopacity="1"
     objecttolerance="10"
     gridtolerance="10"
     guidetolerance="10"
     inkscape:pageopacity="0"
     inkscape:pageshadow="2"
     inkscape:window-width="1855"
     inkscape:window-height="1056"
     id="namedview4211"
     showgrid="false"
     inkscape:zoom="0.91698393"
     inkscape:cx="226.59532"
     inkscape:cy="184.97163"
     inkscape:window-x="65"
     inkscape:window-y="24"
     inkscape:window-maximized="1"
     inkscape:current-layer="layer1" />
  <defs
     id="defs4">
    <linearGradient
       inkscape:collect="always"
       id="linearGradient4213">
      <stop
         style="stop-color:#58a1bf;stop-opacity:1"
         offset="0"
         id="stop4215" />
      <stop
         style="stop-color:#bce8c6;stop-opacity:0.90588236"
         offset="1"
         id="stop4217" />
    </linearGradient>
    <linearGradient
       inkscape:collect="always"
       xlink:href="#linearGradient4213"
       id="linearGradient4223"
       x1="79.303314"
       y1="786.98505"
       x2="451.5939"
       y2="1166.4901"
       gradientUnits="userSpaceOnUse" />
  </defs>
  <metadata
     id="metadata7">
    <rdf:RDF>
      <cc:Work
         rdf:about="">
        <dc:format>image/svg+xml</dc:format>
        <dc:type
           rdf:resource="http://purl.org/dc/dcmitype/StillImage" />
        <dc:title></dc:title>
      </cc:Work>
    </rdf:RDF>
  </metadata>
  <g
     transform="translate(0,-698.0315)"
     id="layer1"
     style="fill-opacity:1;fill:url(#linearGradient4223)">
    <path
       style="opacity:1;fill:#6c5353;fill-opacity:0.11594203;stroke:none;stroke-width:0;stroke-linecap:round;stroke-linejoin:bevel;stroke-miterlimit:4;stroke-dasharray:none;stroke-opacity:1"
       id="path3348"
       sodipodi:type="arc"
       sodipodi:cx="144.13124"
       sodipodi:cy="842.4328"
       sodipodi:rx="122.13954"
       sodipodi:ry="122.13954"
       sodipodi:start="2.088269"
       sodipodi:end="2.082841"
       sodipodi:open="true"
       d="M 83.710606,948.58088 A 122.13954,122.13954 0 0 1 37.901269,782.15626 122.13954,122.13954 0 0 1 204.26357,736.12113 122.13954,122.13954 0 0 1 250.52441,902.42081 122.13954,122.13954 0 0 1 84.287665,948.90728" />
    <path
       style="opacity:1;fill:#ff8080;fill-opacity:1;stroke:none;stroke-width:0;stroke-linecap:round;stroke-linejoin:bevel;stroke-miterlimit:4;stroke-dasharray:none;stroke-opacity:1"
       d="m 154.32031,21.091797 0,100.894533 108.07422,0 C 256.62352,85.756403 234.66245,54.12864 202.73242,36.0625 187.83856,27.697292 171.33637,22.594244 154.32031,21.091797 Z m -30,0.900391 C 88.197456,27.781284 56.660431,49.666787 38.597656,81.480469 31.501875,94.028417 26.715096,107.74774 24.464844,121.98633 l 99.855466,0 z M 23.550781,151.98633 c 3.575842,39.19425 26.066341,74.1725 60.242188,93.6914 L 84.363281,246 c 12.398491,6.93578 25.925759,11.6245 39.957029,13.84961 l 0,-107.86328 z"
       transform="translate(0,698.03148)"
       id="path3295"
       inkscape:connector-curvature="0"
       sodipodi:nodetypes="cccccccccccccccc" />
    <path
       style="opacity:1;fill:#3c7bff;fill-opacity:1;stroke:none;stroke-width:0;stroke-linecap:round;stroke-linejoin:round;stroke-miterlimit:4;stroke-dasharray:none;stroke-opacity:1"
       d="M 140.3457 8.6230469 C 56.270852 8.3744884 -10.235031 100.61646 17.734375 180.42383 C 38.056167 255.25884 129.99325 294.54279 198.59375 262.98438 C 225.21791 289.4878 251.60761 316.23724 278.37891 342.58594 C 290.08216 352.81624 307.73827 347.85209 316.35547 336.21289 C 325.52592 327.01519 338.33053 317.14224 334.73828 302.33594 C 331.18645 288.66717 318.0239 281.06875 309.24219 270.84375 C 290.84223 252.44381 272.44097 234.04254 254.04102 215.64258 C 305.83251 145.35252 264.77782 33.617236 179.82031 13.535156 C 168.29224 10.331886 156.32486 8.7030181 144.36328 8.7050781 C 143.02021 8.6541064 141.68022 8.6269922 140.3457 8.6230469 z M 149.70703 25.470703 A 115.05109 115.05109 0 0 1 201.13867 40.261719 A 115.05109 115.05109 0 0 1 244.71484 196.91016 A 115.05109 115.05109 0 0 1 88.125 240.69922 L 87.582031 240.39062 A 115.05109 115.05109 0 0 1 44.429688 83.625 A 115.05109 115.05109 0 0 1 149.70703 25.470703 z "
       transform="translate(0,698.03148)"
       id="path4136" />
  </g>
</svg>
