<?xml version="1.0" encoding="UTF-8" standalone="no"?>
<svg
   xmlns:dc="http://purl.org/dc/elements/1.1/"
   xmlns:cc="http://creativecommons.org/ns#"
   xmlns:rdf="http://www.w3.org/1999/02/22-rdf-syntax-ns#"
   xmlns:svg="http://www.w3.org/2000/svg"
   xmlns="http://www.w3.org/2000/svg"
   xmlns:xlink="http://www.w3.org/1999/xlink"
   xmlns:sodipodi="http://sodipodi.sourceforge.net/DTD/sodipodi-0.dtd"
   xmlns:inkscape="http://www.inkscape.org/namespaces/inkscape"
   version="1.1"
   id="svg2"
   viewBox="0 0 354.33071 354.3307"
   height="100mm"
   width="100mm"
   inkscape:version="0.91 r"
   sodipodi:docname="icon.svg"
   inkscape:export-filename="/home/olojkine/Developpement/dezoomify/favicon.png"
   inkscape:export-xdpi="172"
   inkscape:export-ydpi="172">
  <sodipodi:namedview
     pagecolor="#ffffff"
     bordercolor="#666666"
     borderopacity="1"
     objecttolerance="10"
     gridtolerance="10"
     guidetolerance="10"
     inkscape:pageopacity="0"
     inkscape:pageshadow="2"
     inkscape:window-width="1855"
     inkscape:window-height="1056"
     id="namedview4211"
     showgrid="false"
     inkscape:zoom="0.91698393"
     inkscape:cx="226.59532"
     inkscape:cy="184.97163"
     inkscape:window-x="65"
     inkscape:window-y="24"
     inkscape:window-maximized="1"
     inkscape:current-layer="layer1" />
  <defs
     id="defs4">
    <linearGradient
       inkscape:collect="always"
       id="linearGradient4213">
      <stop
         style="stop-color:#58a1bf;stop-opacity:1"
         offset="0"
         id="stop4215" />
      <stop
         style="stop-color:#bce8c6;stop-opacity:0.90588236"
         offset="1"
         id="stop4217" />
    </linearGradient>
    <linearGradient
       inkscape:collect="always"
       xlink:href="#linearGradient4213"
       id="linearGradient4223"
       x1="79.303314"
       y1="786.98505"
       x2="451.5939"
       y2="1166.4901"
       gradientUnits="userSpaceOnUse" />
  </defs>
  <metadata
     id="metadata7">
    <rdf:RDF>
      <cc:Work
         rdf:about="">
        <dc:format>image/svg+xml</dc:format>
        <dc:type
           rdf:resource="http://purl.org/dc/dcmitype/StillImage" />
        <dc:title />
      </cc:Work>
    </rdf:RDF>
  </metadata>
  <g
     transform="translate(0,-698.0315)"
     id="layer1"
     style="fill-opacity:1;fill:url(#linearGradient4223)">
    <path
       id="rect4145-3"
       d="m 162.77716,726.06547 c -13.89517,-4.70288 -7.16942,10.28782 -8.74896,17.34675 0,28.27547 0,56.55098 0,84.82648 32.83115,0 65.66231,0 98.49345,0 0,-18.18416 0,-36.36829 0,-54.55244 -19.6748,-29.42588 -54.34999,-47.82203 -89.74449,-47.62079 z"
       style="opacity:1;fill:url(#linearGradient4223);fill-opacity:1;stroke:#ffffff;stroke-width:1.28868032;stroke-linecap:round;stroke-linejoin:round;stroke-miterlimit:4;stroke-dasharray:none;stroke-opacity:1" />
    <path
       id="rect4145"
       d="m 130.55799,728.6867 c -47.304059,4.12896 -95.130434,55.16683 -89.68411,98.17125 29.894702,0 59.7894,0 89.68411,0 0,-32.72374 0,-65.44751 0,-98.17125 z"
       style="opacity:1;fill:url(#linearGradient4223);fill-opacity:1;stroke:#ffffff;stroke-width:1.28868032;stroke-linecap:round;stroke-linejoin:round;stroke-miterlimit:4;stroke-dasharray:none;stroke-opacity:1" />
    <path
       id="rect4145-3-7"
       d="m 36.942426,848.39734 c -4.232825,53.81217 39.032065,107.52898 93.157514,112.30145 0,-37.43381 0,-74.86763 0,-112.30145 -31.052509,0 -62.10501,0 -93.157514,0 z"
       style="opacity:1;fill:url(#linearGradient4223);fill-opacity:1;stroke:#ffffff;stroke-width:1.28868032;stroke-linecap:round;stroke-linejoin:round;stroke-miterlimit:4;stroke-dasharray:none;stroke-opacity:1" />
    <path
       id="path4136"
       d="M 144.36308,706.73599 C 58.406814,703.4738 -10.67877,797.38096 17.734595,878.45511 c 20.321792,74.83501 112.259435,114.11822 180.859935,82.5598 26.62416,26.50342 53.01291,53.25439 79.78421,79.60309 11.70325,10.2303 29.35936,5.2659 37.97656,-6.3733 9.17045,-9.1977 21.9746,-19.0702 18.38235,-33.8765 -3.55183,-13.66877 -16.71421,-21.26847 -25.49592,-31.49347 -18.39996,-18.39994 -36.79992,-36.7999 -55.19987,-55.19986 51.79149,-70.29006 10.73648,-182.02701 -74.22103,-202.10909 -11.52807,-3.20327 -23.49617,-4.83185 -35.45775,-4.82979 z m -0.91615,35.89678 c 62.67754,-2.37983 113.05417,66.09598 92.33425,125.21336 -16.26077,60.5414 -96.53489,88.53968 -146.907519,51.20718 C 35.820707,885.62664 32.812154,800.67019 83.367721,763.57445 100.27774,750.08454 121.81839,742.57896 143.44693,742.63277 Z"
       style="opacity:1;fill:url(#linearGradient4223);fill-opacity:1;stroke:#ffffff;stroke-width:1.28868032;stroke-linecap:round;stroke-linejoin:round;stroke-miterlimit:4;stroke-dasharray:none;stroke-opacity:1" />
  </g>
</svg>
